<svg id="Layer_1" data-name="Layer 1" xmlns="http://www.w3.org/2000/svg" viewBox="0 0 492 328"><title>globe_background-01</title><g id="Layer_2" data-name="Layer 2"><rect width="492" height="328" fill="#f6f6f6"/></g><path d="M254.27485,237.5857a97.89445,97.89445,0,0,1-70.81337-30.13358c-39.06955-39.81949-39.06955-104.66006,0-144.74839l3.52714-3.76665L328.61594,203.9543l-3.52733,3.49781C306.0966,226.82394,281.13563,237.5857,254.27485,237.5857Zm-67.28622-163.851c-31.47275,36.05258-30.38746,92.01452,3.52714,126.72242a88.40479,88.40479,0,0,0,123.72055,3.2282Z"/><path d="M337.84068,259.10792H170.7096V275.5205H337.84068Z" fill="#276ef1"/><path d="M318.57709,242.96625H189.7018a7.8407,7.8407,0,0,1-7.86819,7.80187v8.879H326.44522v-8.879A7.84085,7.84085,0,0,1,318.57709,242.96625Z"/><path d="M259.1588,232.47411H249.12v10.22384H259.1588Z"/><path d="M254.27485,218.21388c44.65359,0,80.85259-37.101,80.85259-82.86719s-36.199-82.86719-80.85259-82.86719c-44.65294,0-80.85207,37.10088-80.85207,82.86719S209.62191,218.21388,254.27485,218.21388Z" fill="#a0bff9"/><path d="M250.74817,122.70154V100.10165c0-2.95957-3.79827-4.30477-5.42647-2.15242l-18.992,25.29089a3.18716,3.18716,0,0,0,2.44165,5.11159h16.27942A5.54031,5.54031,0,0,0,250.74817,122.70154Z" fill="#276ef1"/><path d="M335.12744,135.34669h0c0-45.76618-36.199-82.86719-80.85259-82.86719A78.91059,78.91059,0,0,0,219.63254,60.45l7.51125,7.63458,8.68157,8.87857A16.18221,16.18221,0,0,0,246.9499,81.806h7.054a10.78449,10.78449,0,0,1,10.58135,10.762v14.79777a15.79041,15.79041,0,0,0,4.61237,11.30008l39.06968,39.81949a3.02915,3.02915,0,0,0,5.15489-2.153V146.10845a10.60883,10.60883,0,0,1,10.58135-10.76176Z" fill="#276ef1"/><path d="M306.36819,71.96908V88.80078a10.60863,10.60863,0,0,0,10.58135,10.762h10.27173A82.93617,82.93617,0,0,0,306.36819,71.96908Z" fill="#a0bff9"/><path d="M288.3812,210.50122a78.90487,78.90487,0,0,1-34.10635,7.712c-44.65294,0-80.85207-37.101-80.85207-82.86718q0-2.43837.13573-4.84263h27.26769a16.183,16.183,0,0,1,11.12387,4.84263l14.37963,14.25958a15.08942,15.08942,0,0,0,11.12388,4.84329h19.80609A10.6084,10.6084,0,0,1,267.841,165.21065V182.968a16.25812,16.25812,0,0,0,4.61237,11.29968Z" fill="#276ef1"/></svg>